<svg width="57" height="32" viewBox="0 0 57 32" fill="none" xmlns="http://www.w3.org/2000/svg">
<circle cx="46.34" cy="27.7662" r="3.52113" fill="#D41E24"/>
<circle cx="13.4762" cy="27.7662" r="3.52113" fill="#D41E24"/>
<path fill-rule="evenodd" clip-rule="evenodd" d="M40.5891 26.5901H19.2271C18.6829 23.912 16.315 21.8965 13.4762 21.8965C10.6375 21.8965 8.26951 23.912 7.72532 26.5901H1.66048C1.07245 26.5901 0.611351 26.0852 0.664589 25.4996L1.20566 19.5479H56.9035V25.5901C56.9035 26.1424 56.4558 26.5901 55.9035 26.5901H52.0909C51.5467 23.912 49.1787 21.8965 46.34 21.8965C43.5013 21.8965 41.1333 23.912 40.5891 26.5901ZM56.9035 17.2004H1.41906L2.66483 3.49694C2.80531 1.95171 4.1009 0.768555 5.65251 0.768555H41.5829C42.3404 0.768555 43.033 1.19656 43.3718 1.87413L45.1664 5.46339L50.9725 5.46338C51.73 5.46338 52.4225 5.89138 52.7613 6.56895L56.9034 14.8531L45.1664 14.8531H56.9035V17.2004ZM51.3105 8.91637C50.9718 8.2388 50.2792 7.8108 49.5217 7.8108H47.5137V12.5056H53.1052L51.3105 8.91637ZM8.54211 11.1127H12.6092L12.9574 9.37144H8.8903L9.31998 7.21104H13.7945L14.1427 5.46338H7.12714L5.26027 14.8531H7.79388L8.54211 11.1127ZM16.58 11.5383H17.9876L19.1729 14.8531H21.8769V14.7434L20.4249 10.9901C21.1361 10.7322 21.6892 10.3818 22.0843 9.93895C22.4794 9.49182 22.7042 8.92861 22.7585 8.24933C22.8276 7.38947 22.5313 6.71233 21.8695 6.21791C21.2126 5.71919 20.2743 5.46983 19.0544 5.46983L15.2466 5.46338L13.3797 14.8531H15.9133L16.58 11.5383ZM18.4025 9.80352L16.9208 9.79062L17.4394 7.21104L19.1581 7.21749C19.7606 7.24329 20.1113 7.4948 20.2101 7.97202C20.2644 8.25148 20.2273 8.54168 20.0989 8.84263C19.9705 9.13928 19.7557 9.37359 19.4544 9.54556C19.1581 9.71754 18.8074 9.80352 18.4025 9.80352ZM30.3519 10.874H26.3885L25.9366 13.1118H30.626L30.2778 14.8531H23.0548L24.9217 5.46338H32.1595L31.8113 7.21104H27.1145L26.7145 9.19087H30.6853L30.3519 10.874ZM34.7005 10.874H38.6639L38.9973 9.19087H35.0265L35.4265 7.21104H40.1234L40.4715 5.46338H33.2337L31.3668 14.8531H38.5899L38.938 13.1118H34.2486L34.7005 10.874Z" fill="#D5242A"/>
</svg>
