<svg width="151" height="28" viewBox="0 0 151 28" fill="none" xmlns="http://www.w3.org/2000/svg">
<path d="M36 5H151L145.39 28H36V5Z" fill="#D5242A"/>
<path d="M0 0H148L140.78 28H0V0Z" fill="#00A3FF"/>
<path d="M19.0807 17.4743C18.9891 18.5663 18.6331 19.537 18.0128 20.3863C17.3995 21.2357 16.5889 21.8887 15.5808 22.3455C14.5799 22.8023 13.4943 23.02 12.3241 22.9986C10.7169 22.9629 9.45163 22.4383 8.5282 21.4248C7.60476 20.4113 7.10075 19.0374 7.01616 17.303C6.95272 16.1468 7.07608 14.8871 7.38624 13.5239C7.70345 12.1607 8.21451 10.9759 8.91942 9.96952C9.63138 8.95603 10.4667 8.19948 11.4254 7.69988C12.3911 7.19313 13.445 6.95047 14.5869 6.97188C16.2646 7.00043 17.5898 7.51074 18.5626 8.50282C19.5424 9.49489 20.0747 10.8617 20.1592 12.6032L16.5536 12.5925C16.5677 11.6432 16.3985 10.9652 16.0461 10.5583C15.6936 10.1515 15.1367 9.93383 14.3754 9.90528C12.4722 9.84105 11.3126 11.3399 10.8967 14.4017C10.7064 15.7864 10.6112 16.7749 10.6112 17.3673C10.576 19.123 11.2174 20.0259 12.5356 20.0759C13.3886 20.1044 14.0688 19.8939 14.5763 19.4442C15.0839 18.9874 15.4081 18.3451 15.5491 17.5172L19.0807 17.4743Z" fill="white"/>
<path d="M32.5727 22.7844H28.9777L30.0879 16.2753H24.8117L23.6909 22.7844H20.0747L22.7392 7.1967H26.366L25.2981 13.3847H30.5849L31.6423 7.1967H35.2479L32.5727 22.7844Z" fill="white"/>
<path d="M38.8006 22.7844H35.1844L37.8596 7.1967H41.4652L38.8006 22.7844ZM40.6616 3.02141H44.5422L41.1692 6.38305H38.1239L40.6616 3.02141Z" fill="white"/>
<path d="M53.8787 22.7844H50.3788L46.6992 12.9458L45.0074 22.7844H41.3912L44.0558 7.1967H47.5874L51.2564 17.0354L52.9377 7.1967H56.5539L53.8787 22.7844Z" fill="white"/>
<path d="M68.7559 22.7844H65.1608L66.2711 16.2753H60.9948L59.874 22.7844H56.2578L58.9224 7.1967H62.5491L61.4812 13.3847H66.768L67.8254 7.1967H71.431L68.7559 22.7844Z" fill="white"/>
<path d="M88.9728 22.7844H85.3777L86.4879 16.2753H81.2117L80.0909 22.7844H76.4747L79.1392 7.1967H82.766L81.6981 13.3847H86.9849L88.0423 7.1967H91.6479L88.9728 22.7844Z" fill="white"/>
<path d="M100.572 19.8724H95.6553L94.2913 22.7844H90.305L98.4574 7.1967H101.862L104.706 22.7844H100.942L100.572 19.8724ZM97.0088 16.9712H100.202L99.5253 11.5968L97.0088 16.9712ZM104.802 3.10706C104.752 3.97067 104.495 4.68082 104.03 5.23753C103.564 5.79423 102.979 6.07258 102.274 6.07258C102.021 6.07258 101.781 6.02262 101.555 5.9227C101.33 5.82278 101.094 5.70858 100.847 5.58011C100.607 5.44451 100.378 5.33388 100.16 5.24823C99.9482 5.16259 99.7227 5.12333 99.483 5.13047C99.0107 5.15188 98.69 5.47662 98.5208 6.1047L96.5329 5.99764C96.5823 5.16259 96.8431 4.45957 97.3154 3.88859C97.7947 3.31047 98.3833 3.02855 99.0812 3.04282C99.3984 3.04996 99.8214 3.18914 100.35 3.46035C100.886 3.73157 101.231 3.88859 101.386 3.93141C101.548 3.9671 101.718 3.98137 101.894 3.97423C102.352 3.95282 102.683 3.62808 102.888 3L104.802 3.10706Z" fill="white"/>
<path d="M118.442 22.7844H114.942L111.262 12.9458L109.57 22.7844H105.954L108.619 7.1967H112.15L115.819 17.0354L117.501 7.1967H121.117L118.442 22.7844Z" fill="white"/>
<path d="M133.583 20.8681C133.005 21.5533 132.163 22.085 131.056 22.4633C129.949 22.8344 128.723 23.0093 127.376 22.9879C126.086 22.9736 124.997 22.6453 124.109 22.0029C123.221 21.3606 122.586 20.4648 122.206 19.3157C121.825 18.1666 121.723 16.8712 121.899 15.4295L121.984 14.7872C122.308 12.3676 123.147 10.4513 124.5 9.03811C125.861 7.62494 127.524 6.93619 129.491 6.97188C131.211 7.00043 132.533 7.46792 133.456 8.37435C134.38 9.28078 134.894 10.5905 135 12.3034L131.532 12.2927C131.482 11.4576 131.278 10.8474 130.919 10.462C130.566 10.0766 130.062 9.87317 129.407 9.85176C128.434 9.81607 127.63 10.205 126.996 11.0187C126.361 11.8252 125.928 12.9814 125.695 14.4874C125.498 15.7721 125.427 16.7713 125.484 17.485C125.589 19.2051 126.354 20.0759 127.778 20.0973C128.638 20.1115 129.392 19.901 130.041 19.4656L130.517 17.0354H128.011L128.455 14.4553H134.577L133.583 20.8681Z" fill="white"/>
</svg>
